<svg xmlns="http://www.w3.org/2000/svg" xmlns:xlink="http://www.w3.org/1999/xlink" viewBox="0 0 1367.81 747.75"><defs><style>.cls-1{fill:url(#linear-gradient);}</style><linearGradient id="linear-gradient" x1="47.66" y1="740.98" x2="940.94" y2="225.24" gradientUnits="userSpaceOnUse"><stop offset="0" stop-color="#00fbe6"/><stop offset="1" stop-color="#009ae1"/></linearGradient></defs><title>background</title><g id="Layer_2" data-name="Layer 2"><g id="Layer_1-2" data-name="Layer 1"><path class="cls-1" d="M1,664v82.36c54.79-36.45,124-58.19,199.2-58.15,53.59,0,99.56,12.66,147.92,30.54,4.86,1.8,10,3.63,15.25,3.32,4.68-.28,9-2.2,13.13-4,91.14-39.47,205.15-38.8,295.65,1.73,3.74,1.68,7.67,3.46,11.91,3.36,3.73-.09,7.16-1.66,10.46-3.13,92.16-41.2,208.59-41.1,300.68.24,3.41,1.53,7,3.16,10.84,3.21,4.22.05,8.1-1.78,11.8-3.48,45.4-21,97.63-31.2,149.28-31.17,75.56,0,145,22.08,199.88,58.91V299a50.84,50.84,0,0,0-.21-19.16c-2.46-11.73-14-44.23-99.79-68.84-118-33.84-235.68-12.32-318-20-76-7.09-183.19-44.78-306-190H595c-57.5,0-220.43.28-292,0C231.67.7,127.73.3,0,0,.79,163.5,1,289.26,1,376Z"/></g></g></svg>